<svg xmlns="http://www.w3.org/2000/svg" xmlns:xlink="http://www.w3.org/1999/xlink" contentStyleType="text/css" height="590px" preserveAspectRatio="none" style="width:1149px;height:590px;background:#FFFFFF;" version="1.1" viewBox="0 0 1149 590" width="1149px" zoomAndPan="magnify"><defs/><g><!--cluster Client 1--><g id="cluster_Client 1"><path d="M8.5,6 L70.1416,6 A3.75,3.75 0 0 1 72.6416,8.5 L79.6416,28.2969 L335.5,28.2969 A2.5,2.5 0 0 1 338,30.7969 L338,277.1 A2.5,2.5 0 0 1 335.5,279.6 L8.5,279.6 A2.5,2.5 0 0 1 6,277.1 L6,8.5 A2.5,2.5 0 0 1 8.5,6 " fill="#ADD8E6" style="stroke:#000000;stroke-width:1.5;"/><line style="stroke:#000000;stroke-width:1.5;" x1="6" x2="79.6416" y1="28.2969" y2="28.2969"/><text fill="#000000" font-family="Arial" font-size="14" font-weight="bold" lengthAdjust="spacing" textLength="60.6416" x="10" y="20.9951">Client 1</text></g><!--cluster Server--><g id="cluster_Server"><rect fill="#FFA500" height="291.59" rx="2.5" ry="2.5" style="stroke:#181818;stroke-width:1.0;" width="640" x="503" y="166.3"/><text fill="#000000" font-family="Arial" font-size="14" font-weight="bold" lengthAdjust="spacing" textLength="52.0078" x="796.9961" y="181.2951">Server</text></g><!--cluster PostgreSQL Database--><g id="cluster_PostgreSQL Database"><path d="M34,463.895 L70.75,344.6 L291.25,344.6 L328,463.895 L291.25,583.19 L70.75,583.19 L34,463.895 " fill="#0000FF" style="stroke:#181818;stroke-width:1.0;"/><text fill="#000000" font-family="Arial" font-size="14" font-weight="bold" lengthAdjust="spacing" textLength="171.6094" x="95.1953" y="359.5951">PostgreSQL Database</text></g><!--entity AuthClient--><g id="elem_AuthClient"><rect fill="#F1F1F1" height="46.2969" rx="2.5" ry="2.5" style="stroke:#181818;stroke-width:0.5;" width="113.3428" x="30.33" y="49"/><rect fill="#F1F1F1" height="10" style="stroke:#181818;stroke-width:0.5;" width="15" x="123.6728" y="54"/><rect fill="#F1F1F1" height="2" style="stroke:#181818;stroke-width:0.5;" width="4" x="121.6728" y="56"/><rect fill="#F1F1F1" height="2" style="stroke:#181818;stroke-width:0.5;" width="4" x="121.6728" y="60"/><text fill="#000000" font-family="Arial" font-size="14" lengthAdjust="spacing" textLength="73.3428" x="45.33" y="81.9951">AuthClient</text></g><!--entity ChatClient--><g id="elem_ChatClient"><rect fill="#F1F1F1" height="46.2969" rx="2.5" ry="2.5" style="stroke:#181818;stroke-width:0.5;" width="113.2471" x="178.38" y="49"/><rect fill="#F1F1F1" height="10" style="stroke:#181818;stroke-width:0.5;" width="15" x="271.6271" y="54"/><rect fill="#F1F1F1" height="2" style="stroke:#181818;stroke-width:0.5;" width="4" x="269.6271" y="56"/><rect fill="#F1F1F1" height="2" style="stroke:#181818;stroke-width:0.5;" width="4" x="269.6271" y="60"/><text fill="#000000" font-family="Arial" font-size="14" lengthAdjust="spacing" textLength="73.2471" x="193.38" y="81.9951">ChatClient</text></g><!--entity FileClient--><g id="elem_FileClient"><rect fill="#F1F1F1" height="46.2969" rx="2.5" ry="2.5" style="stroke:#181818;stroke-width:0.5;" width="104.9756" x="36.51" y="209.3"/><rect fill="#F1F1F1" height="10" style="stroke:#181818;stroke-width:0.5;" width="15" x="121.4856" y="214.3"/><rect fill="#F1F1F1" height="2" style="stroke:#181818;stroke-width:0.5;" width="4" x="119.4856" y="216.3"/><rect fill="#F1F1F1" height="2" style="stroke:#181818;stroke-width:0.5;" width="4" x="119.4856" y="220.3"/><text fill="#000000" font-family="Arial" font-size="14" lengthAdjust="spacing" textLength="64.9756" x="51.51" y="242.2951">FileClient</text></g><!--entity Console UI--><g id="elem_Console UI"><rect fill="#F1F1F1" height="46.2969" rx="2.5" ry="2.5" style="stroke:#181818;stroke-width:0.5;" width="114.4023" x="176.8" y="209.3"/><rect fill="#F1F1F1" height="10" style="stroke:#181818;stroke-width:0.5;" width="15" x="271.2023" y="214.3"/><rect fill="#F1F1F1" height="2" style="stroke:#181818;stroke-width:0.5;" width="4" x="269.2023" y="216.3"/><rect fill="#F1F1F1" height="2" style="stroke:#181818;stroke-width:0.5;" width="4" x="269.2023" y="220.3"/><text fill="#000000" font-family="Arial" font-size="14" lengthAdjust="spacing" textLength="74.4023" x="191.8" y="242.2951">Console UI</text></g><!--entity Client 2--><g id="elem_Client 2"><path d="M464.18,52.5 L537.8216,52.5 A3.75,3.75 0 0 1 540.3216,55 L547.3216,74.7969 L561.8216,74.7969 A2.5,2.5 0 0 1 564.3216,77.2969 L564.3216,89.2969 A2.5,2.5 0 0 1 561.8216,91.7969 L464.18,91.7969 A2.5,2.5 0 0 1 461.68,89.2969 L461.68,55 A2.5,2.5 0 0 1 464.18,52.5 " fill="#ADD8E6" style="stroke:#181818;stroke-width:0.5;"/><line style="stroke:#181818;stroke-width:0.5;" x1="461.68" x2="547.3216" y1="74.7969" y2="74.7969"/><text fill="#000000" font-family="Arial" font-size="14" font-weight="bold" lengthAdjust="spacing" textLength="60.6416" x="471.68" y="68.4951">Client 2</text></g><!--entity Client N--><g id="elem_Client N"><path d="M666.19,52.5 L741.8072,52.5 A3.75,3.75 0 0 1 744.3072,55 L751.3072,74.7969 L765.8072,74.7969 A2.5,2.5 0 0 1 768.3072,77.2969 L768.3072,89.2969 A2.5,2.5 0 0 1 765.8072,91.7969 L666.19,91.7969 A2.5,2.5 0 0 1 663.69,89.2969 L663.69,55 A2.5,2.5 0 0 1 666.19,52.5 " fill="#ADD8E6" style="stroke:#181818;stroke-width:0.5;"/><line style="stroke:#181818;stroke-width:0.5;" x1="663.69" x2="751.3072" y1="74.7969" y2="74.7969"/><text fill="#000000" font-family="Arial" font-size="14" font-weight="bold" lengthAdjust="spacing" textLength="62.6172" x="673.69" y="68.4951">Client N</text></g><!--entity AuthService--><g id="elem_AuthService"><rect fill="#F1F1F1" height="46.2969" rx="2.5" ry="2.5" style="stroke:#181818;stroke-width:0.5;" width="124.5537" x="549.72" y="209.3"/><rect fill="#F1F1F1" height="10" style="stroke:#181818;stroke-width:0.5;" width="15" x="654.2737" y="214.3"/><rect fill="#F1F1F1" height="2" style="stroke:#181818;stroke-width:0.5;" width="4" x="652.2737" y="216.3"/><rect fill="#F1F1F1" height="2" style="stroke:#181818;stroke-width:0.5;" width="4" x="652.2737" y="220.3"/><text fill="#000000" font-family="Arial" font-size="14" lengthAdjust="spacing" textLength="84.5537" x="564.72" y="242.2951">AuthService</text></g><!--entity ClientConnectionManager--><g id="elem_ClientConnectionManager"><rect fill="#F1F1F1" height="46.2969" rx="2.5" ry="2.5" style="stroke:#181818;stroke-width:0.5;" width="221.1113" x="709.44" y="209.3"/><rect fill="#F1F1F1" height="10" style="stroke:#181818;stroke-width:0.5;" width="15" x="910.5513" y="214.3"/><rect fill="#F1F1F1" height="2" style="stroke:#181818;stroke-width:0.5;" width="4" x="908.5513" y="216.3"/><rect fill="#F1F1F1" height="2" style="stroke:#181818;stroke-width:0.5;" width="4" x="908.5513" y="220.3"/><text fill="#000000" font-family="Arial" font-size="14" lengthAdjust="spacing" textLength="181.1113" x="724.44" y="242.2951">ClientConnectionManager</text></g><!--entity MessageService--><g id="elem_MessageService"><rect fill="#F1F1F1" height="46.2969" rx="2.5" ry="2.5" style="stroke:#181818;stroke-width:0.5;" width="153.1006" x="965.45" y="209.3"/><rect fill="#F1F1F1" height="10" style="stroke:#181818;stroke-width:0.5;" width="15" x="1098.5506" y="214.3"/><rect fill="#F1F1F1" height="2" style="stroke:#181818;stroke-width:0.5;" width="4" x="1096.5506" y="216.3"/><rect fill="#F1F1F1" height="2" style="stroke:#181818;stroke-width:0.5;" width="4" x="1096.5506" y="220.3"/><text fill="#000000" font-family="Arial" font-size="14" lengthAdjust="spacing" textLength="113.1006" x="980.45" y="242.2951">MessageService</text></g><!--entity FileTransferService--><g id="elem_FileTransferService"><rect fill="#F1F1F1" height="46.2969" rx="2.5" ry="2.5" style="stroke:#181818;stroke-width:0.5;" width="174.5381" x="549.73" y="387.6"/><rect fill="#F1F1F1" height="10" style="stroke:#181818;stroke-width:0.5;" width="15" x="704.2681" y="392.6"/><rect fill="#F1F1F1" height="2" style="stroke:#181818;stroke-width:0.5;" width="4" x="702.2681" y="394.6"/><rect fill="#F1F1F1" height="2" style="stroke:#181818;stroke-width:0.5;" width="4" x="702.2681" y="398.6"/><text fill="#000000" font-family="Arial" font-size="14" lengthAdjust="spacing" textLength="134.5381" x="564.73" y="420.5951">FileTransferService</text></g><!--entity Database Layer--><g id="elem_Database Layer"><path d="M758.86,398.1 C758.86,388.1 824.0021,388.1 824.0021,388.1 C824.0021,388.1 889.1442,388.1 889.1442,398.1 L889.1442,423.3969 C889.1442,433.3969 824.0021,433.3969 824.0021,433.3969 C824.0021,433.3969 758.86,433.3969 758.86,423.3969 L758.86,398.1 " fill="#F1F1F1" style="stroke:#181818;stroke-width:0.5;"/><path d="M758.86,398.1 C758.86,408.1 824.0021,408.1 824.0021,408.1 C824.0021,408.1 889.1442,408.1 889.1442,398.1 " fill="none" style="stroke:#181818;stroke-width:0.5;"/><text fill="#000000" font-family="Arial" font-size="14" lengthAdjust="spacing" textLength="110.2842" x="768.86" y="425.0951">Database Layer</text></g><!--entity users--><g id="elem_users"><rect fill="#F1F1F1" height="46.2969" rx="2.5" ry="2.5" style="stroke:#181818;stroke-width:0.5;" width="77.8301" x="58.08" y="387.6"/><rect fill="#F1F1F1" height="10" style="stroke:#181818;stroke-width:0.5;" width="15" x="115.9101" y="392.6"/><rect fill="#F1F1F1" height="2" style="stroke:#181818;stroke-width:0.5;" width="4" x="113.9101" y="394.6"/><rect fill="#F1F1F1" height="2" style="stroke:#181818;stroke-width:0.5;" width="4" x="113.9101" y="398.6"/><text fill="#000000" font-family="Arial" font-size="14" lengthAdjust="spacing" textLength="37.8301" x="73.08" y="420.5951">users</text></g><!--entity messages--><g id="elem_messages"><rect fill="#F1F1F1" height="46.2969" rx="2.5" ry="2.5" style="stroke:#181818;stroke-width:0.5;" width="110.2119" x="170.89" y="387.6"/><rect fill="#F1F1F1" height="10" style="stroke:#181818;stroke-width:0.5;" width="15" x="261.1019" y="392.6"/><rect fill="#F1F1F1" height="2" style="stroke:#181818;stroke-width:0.5;" width="4" x="259.1019" y="394.6"/><rect fill="#F1F1F1" height="2" style="stroke:#181818;stroke-width:0.5;" width="4" x="259.1019" y="398.6"/><text fill="#000000" font-family="Arial" font-size="14" lengthAdjust="spacing" textLength="70.2119" x="185.89" y="420.5951">messages</text></g><!--entity files--><g id="elem_files"><rect fill="#F1F1F1" height="46.2969" rx="2.5" ry="2.5" style="stroke:#181818;stroke-width:0.5;" width="68.6152" x="62.69" y="512.89"/><rect fill="#F1F1F1" height="10" style="stroke:#181818;stroke-width:0.5;" width="15" x="111.3052" y="517.89"/><rect fill="#F1F1F1" height="2" style="stroke:#181818;stroke-width:0.5;" width="4" x="109.3052" y="519.89"/><rect fill="#F1F1F1" height="2" style="stroke:#181818;stroke-width:0.5;" width="4" x="109.3052" y="523.89"/><text fill="#000000" font-family="Arial" font-size="14" lengthAdjust="spacing" textLength="28.6152" x="77.69" y="545.8851">files</text></g><!--entity sessions--><g id="elem_sessions"><rect fill="#F1F1F1" height="46.2969" rx="2.5" ry="2.5" style="stroke:#181818;stroke-width:0.5;" width="99.1172" x="166.44" y="512.89"/><rect fill="#F1F1F1" height="10" style="stroke:#181818;stroke-width:0.5;" width="15" x="245.5572" y="517.89"/><rect fill="#F1F1F1" height="2" style="stroke:#181818;stroke-width:0.5;" width="4" x="243.5572" y="519.89"/><rect fill="#F1F1F1" height="2" style="stroke:#181818;stroke-width:0.5;" width="4" x="243.5572" y="523.89"/><text fill="#000000" font-family="Arial" font-size="14" lengthAdjust="spacing" textLength="59.1172" x="181.44" y="545.8851">sessions</text></g><!--link Client 1 to Server--><g id="link_Client 1_Server"><path d="M338.0977,88.3629 C338.1562,88.4473 338.215,88.532 338.274,88.617 C338.392,88.7869 338.5109,88.9578 338.6306,89.1297 C338.87,89.4735 339.1128,89.8213 339.3589,90.1728 C339.8512,90.8759 340.3568,91.5941 340.8752,92.3262 C342.9487,95.2544 345.2269,98.4038 347.675,101.69 C357.4675,114.835 369.98,130.17 383,142.3 C406.63,164.31 436.095,184.97 460.9963,200.8488 C473.4469,208.7881 484.7566,215.5322 493.6255,220.652 C495.8427,221.932 497.9074,223.1104 499.7992,224.1807 C500.7451,224.7158 501.6478,225.2238 502.5047,225.704 C502.6119,225.764 497.4825,222.8933 497.5882,222.9525 " fill="none" id="Client 1-to-Server" style="stroke:#181818;stroke-width:1.0;"/><polygon fill="#181818" points="502.8239,225.8828,496.9238,217.9968,498.4608,223.4408,493.0167,224.9778,502.8239,225.8828" style="stroke:#181818;stroke-width:1.0;"/><text fill="#000000" font-family="Arial" font-size="13" lengthAdjust="spacing" textLength="120.4976" x="384" y="138.3669">TCP (Bidirectional)</text></g><!--link Client 2 to Server--><g id="link_Client 2_Server"><path d="M513,92.25 C513,102.1175 513,115.0063 513,128.958 C513,135.9338 513,143.1754 513,150.438 C513,154.0693 513,157.7058 513,161.3169 C513,162.2197 513,163.1209 513,164.0201 C513,164.4697 513,164.9187 513,165.3672 C513,165.5914 513,159.8155 513,160.0395 " fill="none" id="Client 2-to-Server" style="stroke:#181818;stroke-width:1.0;"/><polygon fill="#181818" points="513,166.0395,517,157.0395,513,161.0395,509,157.0395,513,166.0395" style="stroke:#181818;stroke-width:1.0;"/><text fill="#000000" font-family="Arial" font-size="13" lengthAdjust="spacing" textLength="120.4976" x="514" y="138.3669">TCP (Bidirectional)</text></g><!--link Client N to Server--><g id="link_Client N_Server"><path d="M702.18,92.16 C689.01,108.62 667.59,131.44 643,142.3 C620.78,152.11 552.65,134.74 534,150.3 C530.7038,153.05 527.8883,156.2438 525.4866,159.7425 C524.2857,161.4918 523.1883,163.3174 522.1859,165.2019 C522.0606,165.4375 521.9368,165.6739 521.8145,165.9113 C521.7533,166.03 524.4072,160.7982 524.3468,160.9173 " fill="none" id="Client N-to-Server" style="stroke:#181818;stroke-width:1.0;"/><polygon fill="#181818" points="521.6321,166.268,529.2713,160.0518,523.8943,161.8091,522.137,156.4321,521.6321,166.268" style="stroke:#181818;stroke-width:1.0;"/><text fill="#000000" font-family="Arial" font-size="13" lengthAdjust="spacing" textLength="120.4976" x="669.46" y="138.3669">TCP (Bidirectional)</text></g><!--link Server to PostgreSQL Database--><g id="link_Server_PostgreSQL Database"><path d="M502.863,234.7638 C502.7357,234.7828 502.6073,234.802 502.4779,234.8214 C498.3359,235.4434 493.1184,236.3064 487.0923,237.4697 C475.0403,239.7963 459.7544,243.3238 443.3713,248.525 C410.605,258.9275 373.45,276.025 349,303.6 C341.485,312.075 335.7875,322.2813 331.4689,332.9706 C330.3893,335.643 329.3958,338.3455 328.4817,341.0587 C328.2531,341.737 328.0295,342.416 327.8108,343.0954 C327.7015,343.435 329.3946,338.0516 329.2876,338.3914 " fill="none" id="Server-to-PostgreSQL Database" style="stroke:#181818;stroke-width:1.0;"/><polygon fill="#181818" points="327.4864,344.1146,334.0038,336.7306,328.9874,339.3453,326.3728,334.3289,327.4864,344.1146" style="stroke:#181818;stroke-width:1.0;"/><text fill="#000000" font-family="Arial" font-size="13" lengthAdjust="spacing" textLength="183.479" x="350" y="316.6669">SQL over TCP (Bidirectional)</text></g><!--SRC=[pP8nJyCm48Nt_8gJMM3eGCSEI2Me4b8R5RLCKOPhUaciEdPaEmY4-E-SYH91yG0JR7VlNjvzPyMTfExGOWj7gh1NVcMqpx0b44ihKOaawR0yOSr2gYHf3zS2BfIi6tzGFS5h0b2QjZCwpCIozytW4ry7QOC-EbX9HV4lZ7P64JpUY-JjEyRyVs1aVuDXgVIeQnR4ZkmJMSOmbfKeGx38aiuZF_PmiEOmQVG6DLzcprmRSexbU4J0tVDQLv7zv3YYnmCwXhiRgpM-X6X6R-WPQwD1R8tpjQNTmnf66rynlMFUExAk25KxC0nDnJk7oh7CtDnmR3x-dWNCPZUG3yzIm0BswHOkR-LHsk5EL5UJU_uhT_OZTpBDWpb-vW92RzWLZNW7]--></g></svg>